<svg xmlns="http://www.w3.org/2000/svg" xmlns:xlink="http://www.w3.org/1999/xlink" width="1200" height="276.742" zoomAndPan="magnify" viewBox="0 0 375 374.999991"  preserveAspectRatio="xMidYMid meet" version="1.0"><defs><g/></defs><g fill="#e61212" fill-opacity="1"><g transform="translate(-1.207214, 105.028241)"><g><path d="M 10.597656 -67.503906 L 1.578125 -67.503906 L 1.578125 -65.042969 L 10.597656 -65.042969 L 10.597656 -8.390625 C 10.597656 -0.882812 7.949219 0 7.949219 0 L 20.882812 0 C 20.882812 0 18.230469 -0.820312 18.230469 -8.328125 L 18.230469 -65.042969 L 33.625 -65.042969 L 33.625 -67.503906 L 18.230469 -67.503906 C 18.230469 -85.671875 26.8125 -88.195312 30.722656 -88.007812 C 35.832031 -87.691406 37.726562 -84.097656 38.734375 -81.636719 C 40.1875 -78.039062 48.074219 -79.617188 46.242188 -83.71875 C 44.351562 -88.007812 38.925781 -90.53125 31.734375 -90.53125 C 18.296875 -90.53125 10.597656 -80.941406 10.597656 -67.503906 Z M 10.597656 -67.503906 "/></g></g></g><g fill="#e61212" fill-opacity="1"><g transform="translate(35.307284, 105.028241)"><g><path d="M 11.921875 -19.117188 C 11.921875 -59.238281 11.921875 -59.238281 11.921875 -59.238281 C 11.921875 -66.808594 11.921875 -67.628906 11.921875 -67.628906 L 1.578125 -63.59375 C 1.578125 -63.59375 4.226562 -62.773438 4.226562 -55.265625 L 4.226562 -17.664062 C 4.226562 2.902344 44.097656 9.210938 48.261719 -18.988281 C 41.953125 3.027344 11.921875 2.839844 11.921875 -19.117188 Z M 46.054688 0 L 58.988281 0 C 58.988281 0 56.398438 -0.820312 56.398438 -8.328125 L 56.335938 -67.566406 L 46.054688 -63.59375 C 46.054688 -63.59375 48.703125 -62.332031 48.703125 -54.824219 L 48.703125 -8.390625 C 48.703125 -0.882812 46.054688 0 46.054688 0 Z M 46.054688 0 "/></g></g></g><g fill="#e61212" fill-opacity="1"><g transform="translate(97.110765, 105.028241)"><g><path d="M 64.917969 -5.425781 L 78.480469 -0.0625 C 78.480469 -0.0625 75.894531 -1.324219 75.894531 -8.832031 L 75.894531 -30.34375 C 75.894531 -37.851562 78.480469 -38.671875 78.480469 -38.671875 L 65.546875 -38.671875 C 65.546875 -38.671875 68.199219 -37.789062 68.199219 -30.28125 L 68.199219 -17.285156 C 67.820312 -8.707031 56.589844 -2.964844 41.386719 -2.964844 C 23.847656 -2.964844 9.589844 -16.214844 9.589844 -45.359375 C 9.589844 -74.445312 28.074219 -88.007812 41.386719 -88.007812 C 57.535156 -88.007812 64.035156 -83.78125 72.234375 -70.40625 L 76.523438 -82.015625 C 69.460938 -80.121094 65.988281 -90.46875 44.035156 -90.46875 C 19.179688 -90.46875 1.578125 -73.875 1.578125 -45.171875 C 1.578125 -16.527344 19.429688 -0.0625 41.386719 -0.0625 C 50.597656 -0.0625 58.546875 -1.765625 64.917969 -5.425781 Z M 64.917969 -5.425781 "/></g></g></g><g fill="#e61212" fill-opacity="1"><g transform="translate(178.401267, 105.028241)"><g><path d="M 9.527344 -35.265625 L 9.527344 -36.085938 L 65.484375 -36.085938 C 65.484375 -58.796875 52.488281 -67.503906 34.636719 -67.503906 C 16.71875 -67.503906 1.578125 -53.5625 1.578125 -34.949219 C 1.578125 -16.339844 15.394531 0.0625 37.03125 0.0625 C 51.164062 0.0625 62.394531 -9.398438 63.464844 -19.429688 C 59.113281 1.007812 9.96875 5.300781 9.527344 -35.265625 Z M 34.636719 -64.601562 C 51.101562 -64.601562 58.292969 -53.121094 58.292969 -38.042969 L 9.589844 -38.042969 C 10.660156 -53.5 21.828125 -64.601562 34.636719 -64.601562 Z M 34.636719 -64.601562 "/></g></g></g><g fill="#e61212" fill-opacity="1"><g transform="translate(246.700413, 105.028241)"><g><path d="M 1.578125 -63.527344 C 1.578125 -63.527344 4.226562 -62.265625 4.226562 -54.695312 L 4.226562 -8.390625 C 4.226562 -0.882812 1.578125 0 1.578125 0 C 8.390625 0 11.921875 -1.324219 11.921875 -7.445312 L 11.921875 -67.503906 Z M 46.054688 0 L 58.988281 0 C 58.988281 0 56.335938 -0.820312 56.335938 -8.328125 L 56.335938 -49.964844 C 56.335938 -70.53125 16.464844 -76.839844 12.363281 -48.640625 C 18.609375 -70.65625 48.640625 -70.46875 48.640625 -48.515625 C 48.640625 -8.390625 48.640625 -8.390625 48.640625 -8.390625 C 48.640625 -0.882812 46.054688 0 46.054688 0 Z M 46.054688 0 "/></g></g></g><g fill="#e61212" fill-opacity="1"><g transform="translate(308.503894, 105.028241)"><g><path d="M 33.878906 -41.699219 L 13.878906 -8.832031 C 9.335938 -1.324219 5.929688 -0.0625 5.929688 -0.0625 L 12.617188 -0.0625 C 12.617188 -0.0625 10.789062 -1.324219 15.332031 -8.832031 L 34.570312 -40.503906 L 54.191406 -8.390625 C 58.734375 -0.820312 56.589844 -0.0625 56.589844 -0.0625 L 69.523438 -0.0625 C 69.523438 -0.0625 66.367188 -0.882812 61.824219 -8.390625 L 38.421875 -46.8125 L 59.933594 -82.140625 C 64.476562 -89.648438 67.566406 -90.46875 67.566406 -90.46875 L 60.941406 -90.46875 C 60.941406 -90.46875 63.023438 -89.585938 58.417969 -82.078125 L 37.726562 -48.007812 L 17.285156 -81.636719 C 12.679688 -89.144531 14.511719 -90.46875 14.511719 -90.46875 L 1.578125 -90.46875 C 1.578125 -90.46875 4.984375 -89.144531 9.589844 -81.636719 Z M 33.878906 -41.699219 "/></g></g></g></svg>