<svg version="1.1" id="Layer_1" xmlns="http://www.w3.org/2000/svg" xmlns:xlink="http://www.w3.org/1999/xlink" x="0px" y="0px"
	 width="100%" viewBox="0 0 500 500" enable-background="new 0 0 500 500" xml:space="preserve">
<path fill="#FFFFFF" opacity="1.000000" stroke="none" 
	d="
M491.039001,501.000000 
	C327.366760,501.000000 164.201263,501.000000 1.017893,501.000000 
	C1.017893,334.346466 1.017893,167.692947 1.017893,1.019711 
	C167.652313,1.019711 334.304626,1.019711 500.978455,1.019711 
	C500.978455,167.651108 500.978455,334.302216 500.978455,501.000000 
	C497.848663,501.000000 494.697235,501.000000 491.039001,501.000000 
M301.636322,299.828186 
	C304.963470,303.115265 305.135864,309.687561 312.852142,310.056549 
	C312.852142,301.299896 312.873596,293.041107 312.842377,284.782532 
	C312.828491,281.106598 310.833313,281.166382 307.792480,282.599121 
	C307.792480,287.499969 307.792480,292.529358 307.792480,297.885132 
	C301.627045,293.198975 301.583405,283.671265 292.512207,280.970428 
	C292.512207,290.380219 292.430786,298.804321 292.621704,307.222229 
	C292.644012,308.205261 294.170288,309.154205 294.999329,310.118958 
	C295.809296,309.142670 297.248779,308.208923 297.318146,307.182587 
	C297.589905,303.161102 297.429260,299.110413 297.429260,295.070557 
	C297.778625,294.981323 298.127991,294.892090 298.477356,294.802856 
	C299.383820,296.270782 300.290283,297.738708 301.636322,299.828186 
M217.240372,289.885071 
	C217.348465,294.139099 216.756958,298.560638 217.726288,302.608398 
	C219.233215,308.901001 224.621170,311.627136 230.773743,310.227814 
	C236.736435,308.871735 240.974777,303.189972 240.056641,297.366577 
	C239.874268,296.209900 238.572830,294.485229 237.591125,294.338837 
	C234.662155,293.901978 231.624939,293.968933 228.654175,294.179810 
	C227.845093,294.237183 226.366135,295.770020 226.504318,296.152618 
	C226.874329,297.176941 227.813171,298.422150 228.783478,298.709137 
	C230.482697,299.211700 232.374313,299.063660 234.197586,299.189056 
	C233.312943,304.597748 229.805817,306.953064 225.814194,304.941284 
	C221.685669,302.860565 220.016022,294.846069 222.649048,289.748260 
	C224.892700,285.404327 227.893997,285.002838 233.530411,287.877441 
	C234.669022,288.458191 236.363724,287.948608 237.802063,287.941681 
	C237.225204,286.445129 237.076675,284.435272 236.000427,283.537170 
	C230.007095,278.535919 218.906723,281.214691 217.240372,289.885071 
M198.311493,304.383484 
	C198.540161,297.937958 198.924026,291.490845 198.858139,285.048340 
	C198.845901,283.852325 197.169235,281.858856 196.005951,281.649536 
	C193.101776,281.127014 193.140060,283.370911 193.291718,285.560486 
	C193.589935,289.866333 193.802139,294.182983 193.873001,298.498077 
	C193.925262,301.680817 194.050095,305.378326 189.496475,305.376526 
	C185.256180,305.374847 184.667175,302.184692 184.744568,298.694397 
	C184.840302,294.378265 184.994354,290.040894 184.653610,285.750031 
	C184.536835,284.279327 183.234116,281.980652 182.073837,281.697662 
	C179.239258,281.006256 179.136887,283.396912 179.164581,285.529602 
	C179.229309,290.512756 179.200165,295.497101 179.263641,300.480286 
	C179.327042,305.456146 181.125916,309.113953 186.474228,310.355377 
	C191.575058,311.539398 194.917038,310.149902 198.311493,304.383484 
M262.756042,281.624390 
	C261.188782,281.624390 259.621521,281.624390 257.387451,281.624390 
	C257.387451,290.054871 257.230713,298.006714 257.538727,305.940582 
	C257.591278,307.293793 259.532349,309.577393 260.773590,309.701202 
	C265.331329,310.155884 269.961823,309.881470 275.370850,309.881470 
	C272.949280,301.555298 265.854248,307.276886 262.278015,304.463776 
	C262.278015,302.644623 262.278015,300.869202 262.278015,299.139313 
	C272.147980,297.423279 272.147980,297.423279 271.685852,294.153839 
	C268.620239,293.878845 265.536957,293.602234 262.126587,293.296295 
	C262.308411,290.907684 262.451447,289.029114 262.625458,286.743134 
	C266.065735,286.743134 269.057220,286.996826 271.968292,286.623413 
	C273.204132,286.464905 274.271301,284.991516 275.415161,284.115723 
	C274.318268,283.258118 273.290314,281.798584 272.110687,281.663544 
	C269.335968,281.345917 266.488800,281.660706 262.756042,281.624390 
M345.769104,307.915466 
	C347.366455,308.747253 348.963806,309.579041 350.561188,310.410828 
	C350.918182,309.949493 351.275177,309.488190 351.632172,309.026886 
	C350.103424,306.329010 348.796753,303.470978 346.993530,300.971069 
	C344.336243,297.287170 344.089600,294.055054 347.102356,290.368713 
	C349.001465,288.044952 350.187042,285.138031 351.990356,281.969818 
	C343.981934,280.874481 344.850586,289.099579 340.446625,291.004425 
	C332.765961,281.536743 332.765961,281.536743 329.126343,282.697479 
	C331.091003,285.859802 332.741760,289.128967 334.974091,291.935547 
	C337.147949,294.668610 336.734039,296.802277 334.966736,299.444000 
	C332.924683,302.496460 331.274384,305.810974 329.100067,309.634003 
	C337.792877,310.942413 336.443268,302.379669 340.988037,300.009674 
	C342.465332,302.491302 343.899719,304.900818 345.769104,307.915466 
M159.300659,298.098694 
	C162.160889,295.199646 161.093933,293.838257 157.484695,293.559662 
	C155.242874,293.386627 152.992737,293.320892 150.626297,293.200958 
	C150.626297,290.848877 150.626297,288.955872 150.626297,286.302307 
	C154.011108,286.302307 157.137772,286.525391 160.199631,286.177704 
	C161.229980,286.060699 162.095642,284.493286 163.036560,283.588745 
	C162.112030,282.906982 161.210876,281.676544 160.259064,281.635986 
	C155.505035,281.433563 150.737701,281.543427 145.099762,281.543427 
	C145.099762,290.532166 145.011810,298.941376 145.227905,307.342773 
	C145.250977,308.239868 147.049164,309.091278 148.023880,309.963898 
	C148.723938,309.059509 149.930603,308.206055 150.027664,307.240997 
	C150.302780,304.505676 150.124054,301.724670 150.124054,298.613586 
	C153.286377,298.471710 155.900528,298.354401 159.300659,298.098694 
z"/>
<path fill="#FF1F1F" opacity="1.000000" stroke="none" 
	d="
M301.416504,299.517395 
	C300.290283,297.738708 299.383820,296.270782 298.477356,294.802856 
	C298.127991,294.892090 297.778625,294.981323 297.429260,295.070557 
	C297.429260,299.110413 297.589905,303.161102 297.318146,307.182587 
	C297.248779,308.208923 295.809296,309.142670 294.999329,310.118958 
	C294.170288,309.154205 292.644012,308.205261 292.621704,307.222229 
	C292.430786,298.804321 292.512207,290.380219 292.512207,280.970428 
	C301.583405,283.671265 301.627045,293.198975 307.792480,297.885132 
	C307.792480,292.529358 307.792480,287.499969 307.792480,282.599121 
	C310.833313,281.166382 312.828491,281.106598 312.842377,284.782532 
	C312.873596,293.041107 312.852142,301.299896 312.852142,310.056549 
	C305.135864,309.687561 304.963470,303.115265 301.416504,299.517395 
z"/>
<path fill="#FF1F1F" opacity="1.000000" stroke="none" 
	d="
M217.369217,289.510559 
	C218.906723,281.214691 230.007095,278.535919 236.000427,283.537170 
	C237.076675,284.435272 237.225204,286.445129 237.802063,287.941681 
	C236.363724,287.948608 234.669022,288.458191 233.530411,287.877441 
	C227.893997,285.002838 224.892700,285.404327 222.649048,289.748260 
	C220.016022,294.846069 221.685669,302.860565 225.814194,304.941284 
	C229.805817,306.953064 233.312943,304.597748 234.197586,299.189056 
	C232.374313,299.063660 230.482697,299.211700 228.783478,298.709137 
	C227.813171,298.422150 226.874329,297.176941 226.504318,296.152618 
	C226.366135,295.770020 227.845093,294.237183 228.654175,294.179810 
	C231.624939,293.968933 234.662155,293.901978 237.591125,294.338837 
	C238.572830,294.485229 239.874268,296.209900 240.056641,297.366577 
	C240.974777,303.189972 236.736435,308.871735 230.773743,310.227814 
	C224.621170,311.627136 219.233215,308.901001 217.726288,302.608398 
	C216.756958,298.560638 217.348465,294.139099 217.369217,289.510559 
z"/>
<path fill="#FF1F1F" opacity="1.000000" stroke="none" 
	d="
M198.180481,304.768372 
	C194.917038,310.149902 191.575058,311.539398 186.474228,310.355377 
	C181.125916,309.113953 179.327042,305.456146 179.263641,300.480286 
	C179.200165,295.497101 179.229309,290.512756 179.164581,285.529602 
	C179.136887,283.396912 179.239258,281.006256 182.073837,281.697662 
	C183.234116,281.980652 184.536835,284.279327 184.653610,285.750031 
	C184.994354,290.040894 184.840302,294.378265 184.744568,298.694397 
	C184.667175,302.184692 185.256180,305.374847 189.496475,305.376526 
	C194.050095,305.378326 193.925262,301.680817 193.873001,298.498077 
	C193.802139,294.182983 193.589935,289.866333 193.291718,285.560486 
	C193.140060,283.370911 193.101776,281.127014 196.005951,281.649536 
	C197.169235,281.858856 198.845901,283.852325 198.858139,285.048340 
	C198.924026,291.490845 198.540161,297.937958 198.180481,304.768372 
z"/>
<path fill="#FF1F1F" opacity="1.000000" stroke="none" 
	d="
M263.213501,281.671997 
	C266.488800,281.660706 269.335968,281.345917 272.110687,281.663544 
	C273.290314,281.798584 274.318268,283.258118 275.415161,284.115723 
	C274.271301,284.991516 273.204132,286.464905 271.968292,286.623413 
	C269.057220,286.996826 266.065735,286.743134 262.625458,286.743134 
	C262.451447,289.029114 262.308411,290.907684 262.126587,293.296295 
	C265.536957,293.602234 268.620239,293.878845 271.685852,294.153839 
	C272.147980,297.423279 272.147980,297.423279 262.278015,299.139313 
	C262.278015,300.869202 262.278015,302.644623 262.278015,304.463776 
	C265.854248,307.276886 272.949280,301.555298 275.370850,309.881470 
	C269.961823,309.881470 265.331329,310.155884 260.773590,309.701202 
	C259.532349,309.577393 257.591278,307.293793 257.538727,305.940582 
	C257.230713,298.006714 257.387451,290.054871 257.387451,281.624390 
	C259.621521,281.624390 261.188782,281.624390 263.213501,281.671997 
z"/>
<path fill="#FF1F1F" opacity="1.000000" stroke="none" 
	d="
M345.551605,307.612915 
	C343.899719,304.900818 342.465332,302.491302 340.988037,300.009674 
	C336.443268,302.379669 337.792877,310.942413 329.100067,309.634003 
	C331.274384,305.810974 332.924683,302.496460 334.966736,299.444000 
	C336.734039,296.802277 337.147949,294.668610 334.974091,291.935547 
	C332.741760,289.128967 331.091003,285.859802 329.126343,282.697479 
	C332.765961,281.536743 332.765961,281.536743 340.448303,291.006409 
	C344.850586,289.099579 343.981934,280.874481 351.990356,281.969818 
	C350.187042,285.138031 349.001465,288.044952 347.102356,290.368713 
	C344.089600,294.055054 344.336243,297.287170 346.993530,300.971069 
	C348.796753,303.470978 350.103424,306.329010 351.632172,309.026886 
	C351.275177,309.488190 350.918182,309.949493 350.561188,310.410828 
	C348.963806,309.579041 347.366455,308.747253 345.551605,307.612915 
z"/>
<path fill="#FF1F1F" opacity="1.000000" stroke="none" 
	d="
M158.907654,298.167908 
	C155.900528,298.354401 153.286377,298.471710 150.124054,298.613586 
	C150.124054,301.724670 150.302780,304.505676 150.027664,307.240997 
	C149.930603,308.206055 148.723938,309.059509 148.023880,309.963898 
	C147.049164,309.091278 145.250977,308.239868 145.227905,307.342773 
	C145.011810,298.941376 145.099762,290.532166 145.099762,281.543427 
	C150.737701,281.543427 155.505035,281.433563 160.259064,281.635986 
	C161.210876,281.676544 162.112030,282.906982 163.036560,283.588745 
	C162.095642,284.493286 161.229980,286.060699 160.199631,286.177704 
	C157.137772,286.525391 154.011108,286.302307 150.626297,286.302307 
	C150.626297,288.955872 150.626297,290.848877 150.626297,293.200958 
	C152.992737,293.320892 155.242874,293.386627 157.484695,293.559662 
	C161.093933,293.838257 162.160889,295.199646 158.907654,298.167908 
z"/>
</svg>